<svg xmlns="http://www.w3.org/2000/svg" version="1.1" xmlns:xlink="http://www.w3.org/1999/xlink"
    xmlns:svg="http://www.w3.org/2000/svg"
    width="512" height="512" x="0" y="0" viewBox="0 0 24 24"
    style="enable-background:new 0 0 512 512" xml:space="preserve">
    <g>
        <g fill-rule="evenodd">
            <path d="M11.55.815a5.25 5.25 0 1 0 0 10.5 5.25 5.25 0 0 0 0-10.5zM15.719 12.09c.485-.55 1.199-.9 1.993-.9h1.908a2.658 2.658 0 0 1 2.658 2.659v6.678a2.658 2.658 0 0 1-2.658 2.658h-1.908c-.794 0-1.508-.35-1.993-.9a.75.75 0 1 1 1.124-.992c.213.241.523.392.869.392h1.908c.64 0 1.158-.519 1.158-1.158v-6.678c0-.64-.518-1.159-1.158-1.159h-1.908c-.346 0-.656.151-.869.393a.75.75 0 0 1-1.125-.993z" fill="currentColor" opacity="1" data-original="#000000"></path>
            <path d="M17.935 16.657a.75.75 0 0 1 0 1.06l-2 2a.75.75 0 0 1-1.061-1.06l2-2a.75.75 0 0 1 1.06 0z" fill="currentColor" opacity="1" data-original="#000000"></path>
            <path d="M17.935 17.718a.75.75 0 0 0 0-1.06l-2-2a.75.75 0 0 0-1.061 1.06l2 2a.75.75 0 0 0 1.06 0z" fill="currentColor" opacity="1" data-original="#000000"></path>
            <path d="M11.154 17.188a.75.75 0 0 1 .75-.75h5a.75.75 0 0 1 0 1.5h-5a.75.75 0 0 1-.75-.75z" fill="currentColor" opacity="1" data-original="#000000"></path>
        </g>
        <path d="M13.788 13.622a18.9 18.9 0 0 0-11.17 2.07c-.542.288-.88.85-.88 1.464v3.672c0 .966.783 1.75 1.75 1.75h10.685a2.258 2.258 0 0 1-.02-1.52 2.254 2.254 0 0 1-.985-1.62h-1.264a2.25 2.25 0 1 1 0-4.5h1.264a2.24 2.24 0 0 1 .62-1.316z" fill="currentColor" opacity="1" data-original="#000000"></path>
    </g>
</svg>